<svg width="1605" height="512" viewBox="0 0 1605 512" fill="none" xmlns="http://www.w3.org/2000/svg">
  <path d="M256 32C270 32 283 35 296 41L424 100C448 111 464 135 464 162V253C464 358 402 447 287 485C266.866 491.638 245.134 491.638 225 485C110 447 48 358 48 253V162C48 135 64 111 88 100L216 41C229 35 242 32 256 32Z" fill="#2F6FF2"/>
  <path d="M137 386C276 344 355 304 292 254C226 202 212 168 343 124" stroke="white" stroke-width="92" stroke-linecap="round" stroke-linejoin="round"/>
  <path d="M137 386C276 344 355 304 292 254C226 202 212 168 343 124" stroke="#29C76F" stroke-width="58" stroke-linecap="round" stroke-linejoin="round"/>
  <path d="M136 303C99 303 69 333 69 370C69 419 136 475 136 475C136 475 203 419 203 370C203 333 173 303 136 303Z" fill="white"/>
  <path d="M136 395C149.807 395 161 383.807 161 370C161 356.193 149.807 345 136 345C122.193 345 111 356.193 111 370C111 383.807 122.193 395 136 395Z" fill="#2F6FF2"/>
  <path d="M706.515 428.179C640.245 428.179 598.643 397.99 595.881 348.656L595.697 345.342H660.126L660.31 346.999C662.151 363.382 680.375 375.164 707.619 375.164C733.943 375.164 751.247 363.198 751.247 346.263V346.079C751.247 331.168 739.465 324.173 708.355 318.098L680.927 312.76C624.782 301.899 600.483 275.391 600.483 233.973V233.789C600.667 181.693 644.847 148.19 705.962 148.19C772.6 148.19 808.864 181.877 812.914 228.818L813.098 231.027H750.51L750.142 228.818C747.381 212.251 730.813 201.206 706.331 201.206C682.032 201.206 667.673 212.067 667.673 227.898V228.082C667.673 243.177 679.823 251.46 708.54 257.167L735.968 262.505C792.481 273.55 818.252 296.192 818.252 339.083V339.268C818.252 393.572 776.466 428.179 706.515 428.179Z" fill="#2F6FF2"/>
  <path d="M907.54 424.129C868.33 424.129 841.454 399.646 841.454 362.278V361.91C841.454 324.725 870.539 303.188 923.371 299.874L968.103 297.297V281.282C968.103 267.476 957.794 259.192 939.754 259.192C922.634 259.192 912.142 264.898 908.276 275.207L907.908 276.127H848.817L849.002 273.918C852.683 236.182 888.027 211.331 943.436 211.331C999.949 211.331 1032.16 237.102 1032.16 281.282V421H968.103V395.597H964.605C955.585 413.084 933.679 424.129 907.54 424.129ZM904.226 357.676C904.226 370.562 915.087 378.661 931.47 378.661C952.087 378.661 968.103 365.039 968.103 347.367V333.929L933.679 336.138C914.351 337.427 904.226 345.158 904.226 357.308V357.676Z" fill="#2F6FF2"/>
  <path d="M1075.98 421V139.354H1141.15V421H1075.98Z" fill="#2F6FF2"/>
  <path d="M1279.58 492.976C1219.21 492.976 1185.52 468.493 1181.28 432.965V431.677H1244.79L1245.16 432.781C1247.92 442.722 1259.7 449.349 1281.42 449.349C1306.46 449.349 1320.82 437.751 1320.82 417.134V380.686H1317.32C1306.83 401.855 1286.03 412.9 1257.31 412.9C1206.69 412.9 1175.39 373.875 1175.39 314.969V314.601C1175.39 252.933 1206.5 212.987 1258.41 212.987C1286.21 212.987 1307.93 226.425 1318.06 249.436H1320.63V216.117H1385.98V412.9C1385.98 462.234 1344.75 492.976 1279.58 492.976ZM1281.42 364.855C1306.46 364.855 1321.19 344.974 1321.19 314.969V314.601C1321.19 284.411 1306.28 264.53 1281.42 264.53C1256.76 264.53 1242.22 284.411 1242.22 314.417V314.785C1242.22 344.974 1256.57 364.855 1281.42 364.855Z" fill="#2F6FF2"/>
  <path d="M1429.07 421V216.117H1494.42V421H1429.07Z" fill="#2F6FF2"/>
  <path d="M1539.71 421V139.354H1604.87V421H1539.71Z" fill="#2F6FF2"/>
  <circle cx="1462" cy="154" r="34" fill="#29C76F"/>
</svg>
